<svg xmlns="http://www.w3.org/2000/svg" width="1080" height="1920" viewBox="0 0 1080 1920"><rect width="1080" height="1920" fill="#FAF7F1"/><rect x="400" y="90" width="280" height="64" rx="32.0" fill="#6B8F71" opacity="1"/><text x="540.0" y="132.8" font-family="Noto Sans CJK KR" font-size="30" fill="#FFFFFF" font-weight="bold" text-anchor="middle">베이비큐브</text><text x="540" y="256" font-family="Noto Sans CJK KR" font-size="72" fill="#2A2722" font-weight="bold" text-anchor="middle">이유식 준비, 온 가족이 함께</text><text x="540" y="330" font-family="Noto Sans CJK KR" font-size="38" fill="#9A9285" font-weight="normal" text-anchor="middle">재고 · 식단 · 급여 기록을 하나로 관리해요</text><text x="1030" y="146" font-family="Noto Sans CJK KR" font-size="28" fill="#9A9285" font-weight="normal" text-anchor="end">1 / 5</text><rect x="112.00000000000006" y="371" width="855.9999999999999" height="1557.4999999999998" rx="70" fill="#2A2722" opacity="0.06"/><rect x="126.00000000000006" y="385" width="827.9999999999999" height="1529.4999999999998" rx="58" fill="#FFFFFF" opacity="1" stroke="#ECE5D6" stroke-width="3"/><g transform="translate(126.00000000000006,385) scale(1.15)"><rect x="44" y="46" width="18.0" height="18.0" rx="6" fill="#6B8F71"/><rect x="66.0" y="46" width="18.0" height="18.0" rx="6" fill="#6B8F71"/><rect x="66.0" y="68.0" width="18.0" height="18.0" rx="6" fill="#6B8F71"/><rect x="44" y="68.0" width="18.0" height="18.0" rx="6" fill="none" stroke="#E4ECE2" stroke-width="5"/><text x="104" y="80" font-family="Noto Sans CJK KR" font-size="36" fill="#2A2722" font-weight="bold" text-anchor="start">베이비큐브</text><text x="676" y="78" font-family="Noto Sans CJK KR" font-size="26" fill="#9A9285" font-weight="normal" text-anchor="end">생후 9개월 · 오늘</text><g transform="translate(0,130)"><rect x="44" y="10" width="632" height="104" rx="22" fill="#FBE6D6" opacity="1" stroke="#FBE6D6" stroke-width="2.5"/><text x="80" y="54" font-family="Noto Sans CJK KR" font-size="30" fill="#9A4A1E" font-weight="bold" text-anchor="start">냉장 보관 이유식 소진 임박</text><text x="80" y="94" font-family="Noto Sans CJK KR" font-size="25" fill="#A85B30" font-weight="normal" text-anchor="start">소고기 · 브로콜리 — 오늘~내일 사용 권장</text><rect x="44" y="140" width="632" height="330" rx="24" fill="#FFFFFF" opacity="1" stroke="#ECE5D6" stroke-width="2.5"/><text x="80" y="204" font-family="Noto Sans CJK KR" font-size="34" fill="#2A2722" font-weight="bold" text-anchor="start">아침</text><text x="160" y="204" font-family="Noto Sans CJK KR" font-size="27" fill="#9A9285" font-weight="normal" text-anchor="start">07:00</text><rect x="540" y="172" width="100" height="46" rx="23.0" fill="#FBF0D6" opacity="1"/><text x="590.0" y="203.64" font-family="Noto Sans CJK KR" font-size="24" fill="#9A7416" font-weight="bold" text-anchor="middle">완료</text><circle cx="84" cy="253" r="9" fill="#9A9285"/><text x="108" y="262" font-family="Noto Sans CJK KR" font-size="27" fill="#534D43" font-weight="normal" text-anchor="start">죽</text><circle cx="214" cy="253" r="9" fill="#B9695C"/><text x="238" y="262" font-family="Noto Sans CJK KR" font-size="27" fill="#534D43" font-weight="normal" text-anchor="start">소고기</text><circle cx="394" cy="253" r="9" fill="#6B8F71"/><text x="418" y="262" font-family="Noto Sans CJK KR" font-size="27" fill="#534D43" font-weight="normal" text-anchor="start">브로콜리</text><circle cx="84" cy="303" r="9" fill="#6B8F71"/><text x="108" y="312" font-family="Noto Sans CJK KR" font-size="27" fill="#534D43" font-weight="normal" text-anchor="start">애호박</text><clipPath id="cb80344"><rect x="80" y="344" width="560" height="14" rx="7.0"/></clipPath><g clip-path="url(#cb80344)"><rect x="80" y="344" width="308.0" height="14" fill="#9A9285"/><rect x="388.0" y="344" width="84.0" height="14" fill="#B9695C"/><rect x="472.0" y="344" width="168.0" height="14" fill="#6B8F71"/></g><line x1="80" y1="392" x2="640" y2="392" stroke="#ECE5D6" stroke-width="2" stroke-dasharray="8 8"/><text x="80" y="440" font-family="Noto Sans CJK KR" font-size="30" fill="#4F6E55" font-weight="bold" text-anchor="start">150g 중 140g (93%)</text><rect x="510" y="406" width="130" height="50" rx="25.0" fill="#E4ECE2" opacity="1"/><text x="575.0" y="440.0" font-family="Noto Sans CJK KR" font-size="25" fill="#4F6E55" font-weight="bold" text-anchor="middle">수정</text><rect x="44" y="500" width="632" height="300" rx="24" fill="#FFFFFF" opacity="1" stroke="#ECE5D6" stroke-width="2.5"/><text x="80" y="564" font-family="Noto Sans CJK KR" font-size="34" fill="#2A2722" font-weight="bold" text-anchor="start">점심</text><text x="160" y="564" font-family="Noto Sans CJK KR" font-size="27" fill="#9A9285" font-weight="normal" text-anchor="start">12:00</text><rect x="540" y="532" width="100" height="46" rx="23.0" fill="#E4ECE2" opacity="1"/><text x="590.0" y="563.64" font-family="Noto Sans CJK KR" font-size="24" fill="#4F6E55" font-weight="bold" text-anchor="middle">예정</text><circle cx="84" cy="613" r="9" fill="#9A9285"/><text x="108" y="622" font-family="Noto Sans CJK KR" font-size="27" fill="#534D43" font-weight="normal" text-anchor="start">죽</text><circle cx="214" cy="613" r="9" fill="#B9695C"/><text x="238" y="622" font-family="Noto Sans CJK KR" font-size="27" fill="#534D43" font-weight="normal" text-anchor="start">닭고기</text><circle cx="394" cy="613" r="9" fill="#6B8F71"/><text x="418" y="622" font-family="Noto Sans CJK KR" font-size="27" fill="#534D43" font-weight="normal" text-anchor="start">청경채</text><clipPath id="cb80662"><rect x="80" y="662" width="560" height="14" rx="7.0"/></clipPath><g clip-path="url(#cb80662)"><rect x="80" y="662" width="336.0" height="14" fill="#9A9285"/><rect x="416.0" y="662" width="112.0" height="14" fill="#B9695C"/><rect x="528.0" y="662" width="112.0" height="14" fill="#6B8F71"/></g><line x1="80" y1="710" x2="640" y2="710" stroke="#ECE5D6" stroke-width="2" stroke-dasharray="8 8"/><text x="80" y="758" font-family="Noto Sans CJK KR" font-size="29" fill="#9A9285" font-weight="normal" text-anchor="start">총 제공 예정 135g</text><rect x="480" y="724" width="160" height="50" rx="25.0" fill="#E4ECE2" opacity="1"/><text x="560.0" y="758.0" font-family="Noto Sans CJK KR" font-size="25" fill="#4F6E55" font-weight="bold" text-anchor="middle">기록하기</text><rect x="44" y="830" width="632" height="290" rx="24" fill="#FFFFFF" opacity="1" stroke="#ECE5D6" stroke-width="2.5"/><text x="80" y="894" font-family="Noto Sans CJK KR" font-size="31" fill="#2A2722" font-weight="bold" text-anchor="start">곧 떨어지는 재료</text><text x="80" y="952" font-family="Noto Sans CJK KR" font-size="28" fill="#534D43" font-weight="normal" text-anchor="start">소고기</text><rect x="220" y="930" width="22" height="22" rx="5" fill="#6B8F71"/><rect x="250" y="930" width="22" height="22" rx="5" fill="#6B8F71"/><rect x="280" y="930" width="22" height="22" rx="5" fill="transparent" stroke="#ECE5D6" stroke-width="3"/><rect x="310" y="930" width="22" height="22" rx="5" fill="transparent" stroke="#ECE5D6" stroke-width="3"/><rect x="340" y="930" width="22" height="22" rx="5" fill="transparent" stroke="#ECE5D6" stroke-width="3"/><rect x="370" y="930" width="22" height="22" rx="5" fill="transparent" stroke="#ECE5D6" stroke-width="3"/><rect x="400" y="930" width="22" height="22" rx="5" fill="transparent" stroke="#ECE5D6" stroke-width="3"/><rect x="430" y="930" width="22" height="22" rx="5" fill="transparent" stroke="#ECE5D6" stroke-width="3"/><rect x="460" y="930" width="22" height="22" rx="5" fill="transparent" stroke="#ECE5D6" stroke-width="3"/><rect x="490" y="930" width="22" height="22" rx="5" fill="transparent" stroke="#ECE5D6" stroke-width="3"/><text x="640" y="952" font-family="Noto Sans CJK KR" font-size="26" fill="#E07A3F" font-weight="bold" text-anchor="end">~2일</text><text x="80" y="1014" font-family="Noto Sans CJK KR" font-size="28" fill="#534D43" font-weight="normal" text-anchor="start">브로콜리</text><rect x="220" y="992" width="22" height="22" rx="5" fill="#6B8F71"/><rect x="250" y="992" width="22" height="22" rx="5" fill="#6B8F71"/><rect x="280" y="992" width="22" height="22" rx="5" fill="#6B8F71"/><rect x="310" y="992" width="22" height="22" rx="5" fill="#6B8F71"/><rect x="340" y="992" width="22" height="22" rx="5" fill="transparent" stroke="#ECE5D6" stroke-width="3"/><rect x="370" y="992" width="22" height="22" rx="5" fill="transparent" stroke="#ECE5D6" stroke-width="3"/><rect x="400" y="992" width="22" height="22" rx="5" fill="transparent" stroke="#ECE5D6" stroke-width="3"/><rect x="430" y="992" width="22" height="22" rx="5" fill="transparent" stroke="#ECE5D6" stroke-width="3"/><rect x="460" y="992" width="22" height="22" rx="5" fill="transparent" stroke="#ECE5D6" stroke-width="3"/><rect x="490" y="992" width="22" height="22" rx="5" fill="transparent" stroke="#ECE5D6" stroke-width="3"/><text x="640" y="1014" font-family="Noto Sans CJK KR" font-size="26" fill="#E07A3F" font-weight="bold" text-anchor="end">~4일</text><rect x="80" y="1050" width="560" height="54" rx="27.0" fill="#E4ECE2" opacity="1"/><text x="360.0" y="1086.36" font-family="Noto Sans CJK KR" font-size="26" fill="#4F6E55" font-weight="bold" text-anchor="middle">장보기 · 제조 목록 보기</text></g></g></svg>