<svg xmlns="http://www.w3.org/2000/svg" width="1080" height="1920" viewBox="0 0 1080 1920"><rect width="1080" height="1920" fill="#FAF7F1"/><rect x="400" y="90" width="280" height="64" rx="32.0" fill="#6B8F71" opacity="1"/><text x="540.0" y="132.8" font-family="Noto Sans CJK KR" font-size="30" fill="#FFFFFF" font-weight="bold" text-anchor="middle">베이비큐브</text><text x="540" y="256" font-family="Noto Sans CJK KR" font-size="72" fill="#2A2722" font-weight="bold" text-anchor="middle">끼니 계획과 재료 궁합 추천</text><text x="540" y="330" font-family="Noto Sans CJK KR" font-size="38" fill="#9A9285" font-weight="normal" text-anchor="middle">영양학적 근거가 확립된 조합만 골라 알려드려요</text><text x="1030" y="146" font-family="Noto Sans CJK KR" font-size="28" fill="#9A9285" font-weight="normal" text-anchor="end">2 / 5</text><rect x="112.00000000000006" y="371" width="855.9999999999999" height="1557.4999999999998" rx="70" fill="#2A2722" opacity="0.06"/><rect x="126.00000000000006" y="385" width="827.9999999999999" height="1529.4999999999998" rx="58" fill="#FFFFFF" opacity="1" stroke="#ECE5D6" stroke-width="3"/><g transform="translate(126.00000000000006,385) scale(1.15)"><rect x="44" y="46" width="18.0" height="18.0" rx="6" fill="#6B8F71"/><rect x="66.0" y="46" width="18.0" height="18.0" rx="6" fill="#6B8F71"/><rect x="66.0" y="68.0" width="18.0" height="18.0" rx="6" fill="#6B8F71"/><rect x="44" y="68.0" width="18.0" height="18.0" rx="6" fill="none" stroke="#E4ECE2" stroke-width="5"/><text x="104" y="80" font-family="Noto Sans CJK KR" font-size="36" fill="#2A2722" font-weight="bold" text-anchor="start">끼니 추가</text><text x="676" y="78" font-family="Noto Sans CJK KR" font-size="26" fill="#9A9285" font-weight="normal" text-anchor="end">2026-07-05 (일)</text><g transform="translate(0,130)"><rect x="44" y="10" width="632" height="270" rx="26" fill="#E4ECE2" opacity="1" stroke="#E4ECE2" stroke-width="2.5"/><text x="80" y="66" font-family="Noto Sans CJK KR" font-size="28" fill="#4F6E55" font-weight="normal" text-anchor="start">끼니 종류</text><text x="640" y="66" font-family="Noto Sans CJK KR" font-size="30" fill="#4F6E55" font-weight="bold" text-anchor="end">아침 ›</text><text x="80" y="120" font-family="Noto Sans CJK KR" font-size="28" fill="#4F6E55" font-weight="normal" text-anchor="start">끼니 시간</text><text x="640" y="120" font-family="Noto Sans CJK KR" font-size="30" fill="#4F6E55" font-weight="bold" text-anchor="end">07:00</text><line x1="80" y1="150" x2="640" y2="150" stroke="#6B8F71" stroke-width="2" stroke-dasharray="8 8"/><text x="80" y="206" font-family="Noto Sans CJK KR" font-size="30" fill="#4F6E55" font-weight="bold" text-anchor="start">끼니 총량</text><text x="640" y="210" font-family="Noto Sans CJK KR" font-size="44" fill="#4F6E55" font-weight="bold" text-anchor="end">150g</text><clipPath id="cb80234"><rect x="80" y="234" width="560" height="16" rx="8.0"/></clipPath><g clip-path="url(#cb80234)"><rect x="80" y="234" width="280.0" height="16" fill="#9A9285"/><rect x="360.0" y="234" width="84.0" height="16" fill="#B9695C"/><rect x="444.0" y="234" width="140.0" height="16" fill="#6B8F71"/><rect x="584.0" y="234" width="56.0" height="16" fill="#E8B94A"/></g><rect x="44" y="310" width="632" height="470" rx="24" fill="#FFFFFF" opacity="1" stroke="#ECE5D6" stroke-width="2.5"/><text x="80" y="372" font-family="Noto Sans CJK KR" font-size="29" fill="#2A2722" font-weight="bold" text-anchor="start">재료 궁합 — 지금 재고에서 추천</text><circle cx="92" cy="420" r="9" fill="#6B8F71"/><text x="116" y="430" font-family="Noto Sans CJK KR" font-size="29" fill="#2A2722" font-weight="bold" text-anchor="start">브로콜리</text><rect x="262" y="400" width="110" height="40" rx="20.0" fill="#E4ECE2" opacity="1"/><text x="317.0" y="427.92" font-family="Noto Sans CJK KR" font-size="22" fill="#4F6E55" font-weight="bold" text-anchor="middle">근거 A</text><rect x="530" y="398" width="110" height="48" rx="24.0" fill="#FFFFFF" opacity="1"/><text x="585.0" y="431.0" font-family="Noto Sans CJK KR" font-size="25" fill="#4F6E55" font-weight="bold" text-anchor="middle">추가</text><rect x="530" y="398" width="110" height="48" rx="24" fill="none" stroke="#6B8F71" stroke-width="2.5"/><text x="116" y="472" font-family="Noto Sans CJK KR" font-size="24" fill="#9A9285" font-weight="normal" text-anchor="start">소고기와 함께 — 비타민 C가 철분 흡수를 높여줘요</text><circle cx="92" cy="530" r="9" fill="#E8B94A"/><text x="116" y="540" font-family="Noto Sans CJK KR" font-size="29" fill="#2A2722" font-weight="bold" text-anchor="start">귤</text><rect x="180" y="510" width="110" height="40" rx="20.0" fill="#E4ECE2" opacity="1"/><text x="235.0" y="537.92" font-family="Noto Sans CJK KR" font-size="22" fill="#4F6E55" font-weight="bold" text-anchor="middle">근거 A</text><rect x="530" y="508" width="110" height="48" rx="24.0" fill="#FFFFFF" opacity="1"/><text x="585.0" y="541.0" font-family="Noto Sans CJK KR" font-size="25" fill="#4F6E55" font-weight="bold" text-anchor="middle">추가</text><rect x="530" y="508" width="110" height="48" rx="24" fill="none" stroke="#6B8F71" stroke-width="2.5"/><text x="116" y="582" font-family="Noto Sans CJK KR" font-size="24" fill="#9A9285" font-weight="normal" text-anchor="start">시금치와 함께 — 식물성 철분 흡수를 도와줘요</text><rect x="80" y="614" width="560" height="120" rx="18" fill="#FBE6D6" opacity="1" stroke="#FBE6D6" stroke-width="2.5"/><text x="108" y="662" font-family="Noto Sans CJK KR" font-size="27" fill="#9A4A1E" font-weight="bold" text-anchor="start">⚠ 시금치 + 두부</text><text x="108" y="704" font-family="Noto Sans CJK KR" font-size="24" fill="#A85B30" font-weight="normal" text-anchor="start">옥살산이 칼슘 흡수를 방해할 수 있어요</text><text x="80" y="766" font-family="Noto Sans CJK KR" font-size="21" fill="#9A9285" font-weight="normal" text-anchor="start">* 확립된 영양소 상호작용만 안내하는 참고 정보예요</text><rect x="44" y="810" width="632" height="310" rx="24" fill="#FFFFFF" opacity="1" stroke="#ECE5D6" stroke-width="2.5"/><text x="80" y="872" font-family="Noto Sans CJK KR" font-size="28" fill="#9A9285" font-weight="bold" text-anchor="start">재료 (4)</text><circle cx="92" cy="921" r="9" fill="#9A9285"/><text x="116" y="930" font-family="Noto Sans CJK KR" font-size="28" fill="#534D43" font-weight="normal" text-anchor="start">죽 · 4큐브 (80g)</text><circle cx="92" cy="979" r="9" fill="#B9695C"/><text x="116" y="988" font-family="Noto Sans CJK KR" font-size="28" fill="#534D43" font-weight="normal" text-anchor="start">소고기 · 1큐브 (15g)</text><circle cx="92" cy="1037" r="9" fill="#6B8F71"/><text x="116" y="1046" font-family="Noto Sans CJK KR" font-size="28" fill="#534D43" font-weight="normal" text-anchor="start">시금치 · 1큐브 (15g)</text><circle cx="92" cy="1095" r="9" fill="#6B8F71"/><text x="116" y="1104" font-family="Noto Sans CJK KR" font-size="28" fill="#534D43" font-weight="normal" text-anchor="start">브로콜리 · 1큐브 (15g)</text></g></g></svg>