<svg xmlns="http://www.w3.org/2000/svg" width="1080" height="1920" viewBox="0 0 1080 1920"><rect width="1080" height="1920" fill="#FAF7F1"/><rect x="400" y="90" width="280" height="64" rx="32.0" fill="#6B8F71" opacity="1"/><text x="540.0" y="132.8" font-family="Noto Sans CJK KR" font-size="30" fill="#FFFFFF" font-weight="bold" text-anchor="middle">베이비큐브</text><text x="540" y="256" font-family="Noto Sans CJK KR" font-size="72" fill="#2A2722" font-weight="bold" text-anchor="middle">냉동 큐브 재고를 한눈에</text><text x="540" y="330" font-family="Noto Sans CJK KR" font-size="38" fill="#9A9285" font-weight="normal" text-anchor="middle">소진 임박 알림부터 장보기 목록까지 자동으로</text><text x="1030" y="146" font-family="Noto Sans CJK KR" font-size="28" fill="#9A9285" font-weight="normal" text-anchor="end">3 / 5</text><rect x="112.00000000000006" y="371" width="855.9999999999999" height="1557.4999999999998" rx="70" fill="#2A2722" opacity="0.06"/><rect x="126.00000000000006" y="385" width="827.9999999999999" height="1529.4999999999998" rx="58" fill="#FFFFFF" opacity="1" stroke="#ECE5D6" stroke-width="3"/><g transform="translate(126.00000000000006,385) scale(1.15)"><rect x="44" y="46" width="18.0" height="18.0" rx="6" fill="#6B8F71"/><rect x="66.0" y="46" width="18.0" height="18.0" rx="6" fill="#6B8F71"/><rect x="66.0" y="68.0" width="18.0" height="18.0" rx="6" fill="#6B8F71"/><rect x="44" y="68.0" width="18.0" height="18.0" rx="6" fill="none" stroke="#E4ECE2" stroke-width="5"/><text x="104" y="80" font-family="Noto Sans CJK KR" font-size="36" fill="#2A2722" font-weight="bold" text-anchor="start">재고</text><g transform="translate(0,130)"><rect x="44" y="14" width="96" height="52" rx="26.0" fill="#6B8F71" opacity="1"/><text x="92.0" y="49.0" font-family="Noto Sans CJK KR" font-size="25" fill="#FFFFFF" font-weight="bold" text-anchor="middle">전체</text><rect x="154" y="14" width="148" height="52" rx="26.0" fill="#E4ECE2" opacity="1"/><text x="228.0" y="49.0" font-family="Noto Sans CJK KR" font-size="25" fill="#4F6E55" font-weight="bold" text-anchor="middle">소진임박</text><rect x="316" y="14" width="96" height="52" rx="26.0" fill="#E4ECE2" opacity="1"/><text x="364.0" y="49.0" font-family="Noto Sans CJK KR" font-size="25" fill="#4F6E55" font-weight="bold" text-anchor="middle">냉동</text><rect x="426" y="14" width="96" height="52" rx="26.0" fill="#E4ECE2" opacity="1"/><text x="474.0" y="49.0" font-family="Noto Sans CJK KR" font-size="25" fill="#4F6E55" font-weight="bold" text-anchor="middle">냉장</text><rect x="536" y="14" width="96" height="52" rx="26.0" fill="#E4ECE2" opacity="1"/><text x="584.0" y="49.0" font-family="Noto Sans CJK KR" font-size="25" fill="#4F6E55" font-weight="bold" text-anchor="middle">채소</text><rect x="44" y="92" width="632" height="68" rx="34.0" fill="#6B8F71" opacity="1"/><text x="360.0" y="136.44" font-family="Noto Sans CJK KR" font-size="29" fill="#FFFFFF" font-weight="bold" text-anchor="middle">+  제조 기록 추가</text><rect x="44" y="196" width="632" height="104" rx="20" fill="#FFFFFF" opacity="1" stroke="#ECE5D6" stroke-width="2.5"/><circle cx="88" cy="248" r="10" fill="#6B8F71"/><text x="116" y="258" font-family="Noto Sans CJK KR" font-size="30" fill="#2A2722" font-weight="bold" text-anchor="start">애호박</text><rect x="300" y="236" width="20" height="20" rx="5" fill="#6B8F71"/><rect x="327" y="236" width="20" height="20" rx="5" fill="#6B8F71"/><rect x="354" y="236" width="20" height="20" rx="5" fill="#6B8F71"/><rect x="381" y="236" width="20" height="20" rx="5" fill="#6B8F71"/><rect x="408" y="236" width="20" height="20" rx="5" fill="#6B8F71"/><rect x="435" y="236" width="20" height="20" rx="5" fill="#6B8F71"/><text x="640" y="258" font-family="Noto Sans CJK KR" font-size="24" fill="#9A9285" font-weight="normal" text-anchor="end">9큐브</text><rect x="44" y="320" width="632" height="104" rx="20" fill="#FFFFFF" opacity="1" stroke="#ECE5D6" stroke-width="2.5"/><circle cx="88" cy="372" r="10" fill="#6B8F71"/><text x="116" y="382" font-family="Noto Sans CJK KR" font-size="30" fill="#2A2722" font-weight="bold" text-anchor="start">단호박</text><rect x="300" y="360" width="20" height="20" rx="5" fill="#6B8F71"/><rect x="327" y="360" width="20" height="20" rx="5" fill="#6B8F71"/><rect x="354" y="360" width="20" height="20" rx="5" fill="#6B8F71"/><rect x="381" y="360" width="20" height="20" rx="5" fill="#6B8F71"/><rect x="408" y="360" width="20" height="20" rx="5" fill="#6B8F71"/><rect x="435" y="360" width="20" height="20" rx="5" fill="#6B8F71"/><text x="640" y="382" font-family="Noto Sans CJK KR" font-size="24" fill="#9A9285" font-weight="normal" text-anchor="end">6큐브</text><rect x="44" y="444" width="632" height="104" rx="20" fill="#FFFFFF" opacity="1" stroke="#E07A3F" stroke-width="2.5"/><circle cx="88" cy="496" r="10" fill="#B9695C"/><text x="116" y="506" font-family="Noto Sans CJK KR" font-size="30" fill="#2A2722" font-weight="bold" text-anchor="start">소고기</text><rect x="258" y="474" width="150" height="44" rx="22.0" fill="#FBE6D6" opacity="1"/><text x="333.0" y="503.92" font-family="Noto Sans CJK KR" font-size="22" fill="#E07A3F" font-weight="bold" text-anchor="middle">냉장 ~1일</text><text x="640" y="506" font-family="Noto Sans CJK KR" font-size="24" fill="#9A9285" font-weight="normal" text-anchor="end">2큐브 · 냉장 40g</text><rect x="44" y="568" width="632" height="104" rx="20" fill="#FFFFFF" opacity="1" stroke="#ECE5D6" stroke-width="2.5"/><circle cx="88" cy="620" r="10" fill="#B9695C"/><text x="116" y="630" font-family="Noto Sans CJK KR" font-size="30" fill="#2A2722" font-weight="bold" text-anchor="start">닭고기</text><rect x="300" y="608" width="20" height="20" rx="5" fill="#6B8F71"/><rect x="327" y="608" width="20" height="20" rx="5" fill="#6B8F71"/><rect x="354" y="608" width="20" height="20" rx="5" fill="#6B8F71"/><rect x="381" y="608" width="20" height="20" rx="5" fill="#6B8F71"/><rect x="408" y="608" width="20" height="20" rx="5" fill="#6B8F71"/><rect x="435" y="608" width="20" height="20" rx="5" fill="transparent" stroke="#ECE5D6" stroke-width="3"/><text x="640" y="630" font-family="Noto Sans CJK KR" font-size="24" fill="#9A9285" font-weight="normal" text-anchor="end">5큐브</text><rect x="44" y="692" width="632" height="104" rx="20" fill="#FFFFFF" opacity="1" stroke="#E07A3F" stroke-width="2.5"/><circle cx="88" cy="744" r="10" fill="#6B8F71"/><text x="116" y="754" font-family="Noto Sans CJK KR" font-size="30" fill="#2A2722" font-weight="bold" text-anchor="start">브로콜리</text><rect x="258" y="722" width="150" height="44" rx="22.0" fill="#FBE6D6" opacity="1"/><text x="333.0" y="751.92" font-family="Noto Sans CJK KR" font-size="22" fill="#E07A3F" font-weight="bold" text-anchor="middle">냉장 ~1일</text><text x="640" y="754" font-family="Noto Sans CJK KR" font-size="24" fill="#9A9285" font-weight="normal" text-anchor="end">4큐브 · 냉장 20g</text><rect x="44" y="816" width="632" height="104" rx="20" fill="#FFFFFF" opacity="1" stroke="#ECE5D6" stroke-width="2.5"/><circle cx="88" cy="868" r="10" fill="#6B8F71"/><text x="116" y="878" font-family="Noto Sans CJK KR" font-size="30" fill="#2A2722" font-weight="bold" text-anchor="start">당근</text><rect x="300" y="856" width="20" height="20" rx="5" fill="#6B8F71"/><rect x="327" y="856" width="20" height="20" rx="5" fill="#6B8F71"/><rect x="354" y="856" width="20" height="20" rx="5" fill="#6B8F71"/><rect x="381" y="856" width="20" height="20" rx="5" fill="#6B8F71"/><rect x="408" y="856" width="20" height="20" rx="5" fill="#6B8F71"/><rect x="435" y="856" width="20" height="20" rx="5" fill="#6B8F71"/><text x="640" y="878" font-family="Noto Sans CJK KR" font-size="24" fill="#9A9285" font-weight="normal" text-anchor="end">7큐브</text><rect x="44" y="940" width="632" height="104" rx="20" fill="#FFFFFF" opacity="1" stroke="#ECE5D6" stroke-width="2.5"/><circle cx="88" cy="992" r="10" fill="#E8B94A"/><text x="116" y="1002" font-family="Noto Sans CJK KR" font-size="30" fill="#2A2722" font-weight="bold" text-anchor="start">배</text><rect x="300" y="980" width="20" height="20" rx="5" fill="#6B8F71"/><rect x="327" y="980" width="20" height="20" rx="5" fill="#6B8F71"/><rect x="354" y="980" width="20" height="20" rx="5" fill="#6B8F71"/><rect x="381" y="980" width="20" height="20" rx="5" fill="transparent" stroke="#ECE5D6" stroke-width="3"/><rect x="408" y="980" width="20" height="20" rx="5" fill="transparent" stroke="#ECE5D6" stroke-width="3"/><rect x="435" y="980" width="20" height="20" rx="5" fill="transparent" stroke="#ECE5D6" stroke-width="3"/><text x="640" y="1002" font-family="Noto Sans CJK KR" font-size="24" fill="#9A9285" font-weight="normal" text-anchor="end">3큐브</text></g></g></svg>