<svg xmlns="http://www.w3.org/2000/svg" width="1080" height="1920" viewBox="0 0 1080 1920"><rect width="1080" height="1920" fill="#FAF7F1"/><rect x="400" y="90" width="280" height="64" rx="32.0" fill="#6B8F71" opacity="1"/><text x="540.0" y="132.8" font-family="Noto Sans CJK KR" font-size="30" fill="#FFFFFF" font-weight="bold" text-anchor="middle">베이비큐브</text><text x="540" y="256" font-family="Noto Sans CJK KR" font-size="72" fill="#2A2722" font-weight="bold" text-anchor="middle">가족 실시간 공유 · 재료 위키</text><text x="540" y="330" font-family="Noto Sans CJK KR" font-size="38" fill="#9A9285" font-weight="normal" text-anchor="middle">부부가 함께 보고, 재료 지식은 앱이 채워줘요</text><text x="1030" y="146" font-family="Noto Sans CJK KR" font-size="28" fill="#9A9285" font-weight="normal" text-anchor="end">5 / 5</text><rect x="112.00000000000006" y="371" width="855.9999999999999" height="1557.4999999999998" rx="70" fill="#2A2722" opacity="0.06"/><rect x="126.00000000000006" y="385" width="827.9999999999999" height="1529.4999999999998" rx="58" fill="#FFFFFF" opacity="1" stroke="#ECE5D6" stroke-width="3"/><g transform="translate(126.00000000000006,385) scale(1.15)"><rect x="44" y="46" width="18.0" height="18.0" rx="6" fill="#6B8F71"/><rect x="66.0" y="46" width="18.0" height="18.0" rx="6" fill="#6B8F71"/><rect x="66.0" y="68.0" width="18.0" height="18.0" rx="6" fill="#6B8F71"/><rect x="44" y="68.0" width="18.0" height="18.0" rx="6" fill="none" stroke="#E4ECE2" stroke-width="5"/><text x="104" y="80" font-family="Noto Sans CJK KR" font-size="36" fill="#2A2722" font-weight="bold" text-anchor="start">공유 · 재료 정보</text><g transform="translate(0,130)"><rect x="44" y="10" width="632" height="250" rx="26" fill="#E4ECE2" opacity="1" stroke="#E4ECE2" stroke-width="2.5"/><text x="360" y="66" font-family="Noto Sans CJK KR" font-size="26" fill="#4F6E55" font-weight="bold" text-anchor="middle">초대 코드</text><text x="360" y="150" font-family="Noto Sans CJK KR" font-size="64" fill="#4F6E55" font-weight="bold" text-anchor="middle">H3K9PQ</text><rect x="230" y="182" width="260" height="54" rx="27.0" fill="#FFFFFF" opacity="1"/><text x="360.0" y="218.36" font-family="Noto Sans CJK KR" font-size="26" fill="#4F6E55" font-weight="bold" text-anchor="middle">코드 복사</text><text x="360" y="300" font-family="Noto Sans CJK KR" font-size="22" fill="#9A9285" font-weight="normal" text-anchor="middle">코드 하나로 배우자와 실시간 공유 · 동시에 기록해도 안전하게 합쳐져요</text><rect x="44" y="330" width="632" height="700" rx="24" fill="#FFFFFF" opacity="1" stroke="#ECE5D6" stroke-width="2.5"/><text x="80" y="392" font-family="Noto Sans CJK KR" font-size="31" fill="#2A2722" font-weight="bold" text-anchor="start">재료 정보 (위키)</text><text x="640" y="392" font-family="Noto Sans CJK KR" font-size="25" fill="#4F6E55" font-weight="bold" text-anchor="end">24/52 먹어봄</text><g opacity="1.0"><circle cx="92" cy="470" r="9" fill="#6B8F71"/><text x="118" y="480" font-family="Noto Sans CJK KR" font-size="29" fill="#2A2722" font-weight="bold" text-anchor="start">시금치</text><path d="M 221 466 l 10 12 l 20 -24" stroke="#6B8F71" stroke-width="5" fill="none" stroke-linecap="round"/><text x="640" y="478" font-family="Noto Sans CJK KR" font-size="22" fill="#9A9285" font-weight="normal" text-anchor="end">철분 · 베타카로틴 · 옥살산</text></g><line x1="80" y1="508" x2="640" y2="508" stroke="#ECE5D6" stroke-width="2"/><g opacity="1.0"><circle cx="92" cy="564" r="9" fill="#B9695C"/><text x="118" y="574" font-family="Noto Sans CJK KR" font-size="29" fill="#2A2722" font-weight="bold" text-anchor="start">소고기</text><path d="M 221 560 l 10 12 l 20 -24" stroke="#6B8F71" stroke-width="5" fill="none" stroke-linecap="round"/><text x="640" y="572" font-family="Noto Sans CJK KR" font-size="22" fill="#9A9285" font-weight="normal" text-anchor="end">철분 · 지방</text></g><line x1="80" y1="602" x2="640" y2="602" stroke="#ECE5D6" stroke-width="2"/><g opacity="1.0"><circle cx="92" cy="658" r="9" fill="#E8B94A"/><text x="118" y="668" font-family="Noto Sans CJK KR" font-size="29" fill="#2A2722" font-weight="bold" text-anchor="start">사과퓨레</text><path d="M 250 654 l 10 12 l 20 -24" stroke="#6B8F71" stroke-width="5" fill="none" stroke-linecap="round"/><text x="640" y="666" font-family="Noto Sans CJK KR" font-size="22" fill="#9A9285" font-weight="normal" text-anchor="end">사과의 변형</text></g><line x1="80" y1="696" x2="640" y2="696" stroke="#ECE5D6" stroke-width="2"/><g opacity="1.0"><circle cx="92" cy="752" r="9" fill="#6B8F71"/><text x="118" y="762" font-family="Noto Sans CJK KR" font-size="29" fill="#2A2722" font-weight="bold" text-anchor="start">감뚝큐브</text><path d="M 250 748 l 10 12 l 20 -24" stroke="#6B8F71" stroke-width="5" fill="none" stroke-linecap="round"/><text x="640" y="760" font-family="Noto Sans CJK KR" font-size="22" fill="#9A9285" font-weight="normal" text-anchor="end">혼합: 배 · 무 · 양파</text></g><line x1="80" y1="790" x2="640" y2="790" stroke="#ECE5D6" stroke-width="2"/><g opacity="0.45"><circle cx="92" cy="846" r="9" fill="#6B8F71"/><text x="118" y="856" font-family="Noto Sans CJK KR" font-size="29" fill="#2A2722" font-weight="normal" text-anchor="start">케일</text><text x="640" y="854" font-family="Noto Sans CJK KR" font-size="22" fill="#9A9285" font-weight="normal" text-anchor="end">비타민C · 베타카로틴 · 칼슘</text></g><line x1="80" y1="884" x2="640" y2="884" stroke="#ECE5D6" stroke-width="2"/><g opacity="0.45"><circle cx="92" cy="940" r="9" fill="#B9695C"/><text x="118" y="950" font-family="Noto Sans CJK KR" font-size="29" fill="#2A2722" font-weight="normal" text-anchor="start">오리고기</text><text x="640" y="948" font-family="Noto Sans CJK KR" font-size="22" fill="#9A9285" font-weight="normal" text-anchor="end">철분 · 지방</text></g><line x1="80" y1="978" x2="640" y2="978" stroke="#ECE5D6" stroke-width="2"/><text x="80" y="1005" font-family="Noto Sans CJK KR" font-size="23" fill="#9A9285" font-weight="normal" text-anchor="start">영양 DB 50여 개 재료 + 변형·혼합 큐브 분류까지</text><rect x="44" y="1060" width="632" height="90" rx="20" fill="#FBF0D6" opacity="1" stroke="#FBF0D6" stroke-width="2.5"/><text x="360" y="1116" font-family="Noto Sans CJK KR" font-size="25" fill="#9A7416" font-weight="bold" text-anchor="middle">먹어본 재료는 진하게, 주의 재료는 따로 표시돼요</text></g></g></svg>